<svg width="210" height="64" viewBox="0 0 210 64" fill="none" xmlns="http://www.w3.org/2000/svg">
<g clip-path="url(#clip0_1004_9)">
<path d="M0.454 48.952C0.732667 49.3827 1.138 49.712 1.67 49.94C2.17667 50.1933 2.772 50.32 3.456 50.32C4.03867 50.32 4.60867 50.054 5.166 49.522C5.74867 49.0153 6.04 48.1413 6.04 46.9V18.4H9.08V47.28C9.08 48.3187 8.94067 49.218 8.662 49.978C8.40867 50.738 8.02867 51.3713 7.522 51.878C7.01533 52.3847 6.39467 52.752 5.66 52.98C4.95067 53.2333 4.15267 53.36 3.266 53.36C2.60733 53.36 1.974 53.246 1.366 53.018C0.732667 52.8153 0.200667 52.562 -0.23 52.258C-0.686 51.9793 -1.01533 51.7133 -1.218 51.46L0.454 48.952ZM21.7429 45.38C20.1216 45.38 18.6776 45 17.4109 44.24C16.1696 43.4547 15.1942 42.378 14.4849 41.01C13.8009 39.642 13.4589 38.0587 13.4589 36.26C13.4589 34.436 13.8136 32.84 14.5229 31.472C15.2576 30.104 16.2709 29.04 17.5629 28.28C18.8802 27.52 20.4002 27.14 22.1229 27.14C23.8456 27.14 25.3149 27.5073 26.5309 28.242C27.7722 28.9513 28.7222 29.9773 29.3809 31.32C30.0396 32.6627 30.3689 34.2587 30.3689 36.108C30.3689 36.2853 30.3562 36.4753 30.3309 36.678C30.3309 36.8553 30.3309 36.9693 30.3309 37.02H15.3969V34.436H27.9369L26.7209 36.184C26.7969 36.0573 26.8729 35.8673 26.9489 35.614C27.0249 35.3353 27.0629 35.1073 27.0629 34.93C27.0629 33.8913 26.8476 32.992 26.4169 32.232C26.0116 31.472 25.4416 30.8767 24.7069 30.446C23.9722 30.0153 23.1109 29.8 22.1229 29.8C20.9576 29.8 19.9569 30.0533 19.1209 30.56C18.3102 31.0413 17.6769 31.7507 17.2209 32.688C16.7902 33.6 16.5622 34.7273 16.5369 36.07C16.5369 37.438 16.7522 38.6033 17.1829 39.566C17.6136 40.5287 18.2469 41.2633 19.0829 41.77C19.9189 42.2767 20.9322 42.53 22.1229 42.53C23.3136 42.53 24.3649 42.2767 25.2769 41.77C26.1889 41.238 26.9616 40.44 27.5949 39.376L30.0649 40.934C29.1529 42.4033 28.0002 43.518 26.6069 44.278C25.2389 45.0127 23.6176 45.38 21.7429 45.38ZM41.2995 45.38C39.6782 45.38 38.2342 45 36.9675 44.24C35.7262 43.4547 34.7509 42.378 34.0415 41.01C33.3575 39.642 33.0155 38.0587 33.0155 36.26C33.0155 34.436 33.3702 32.84 34.0795 31.472C34.8142 30.104 35.8275 29.04 37.1195 28.28C38.4369 27.52 39.9569 27.14 41.6795 27.14C43.4022 27.14 44.8715 27.5073 46.0875 28.242C47.3289 28.9513 48.2789 29.9773 48.9375 31.32C49.5962 32.6627 49.9255 34.2587 49.9255 36.108C49.9255 36.2853 49.9129 36.4753 49.8875 36.678C49.8875 36.8553 49.8875 36.9693 49.8875 37.02H34.9535V34.436H47.4935L46.2775 36.184C46.3535 36.0573 46.4295 35.8673 46.5055 35.614C46.5815 35.3353 46.6195 35.1073 46.6195 34.93C46.6195 33.8913 46.4042 32.992 45.9735 32.232C45.5682 31.472 44.9982 30.8767 44.2635 30.446C43.5289 30.0153 42.6675 29.8 41.6795 29.8C40.5142 29.8 39.5135 30.0533 38.6775 30.56C37.8669 31.0413 37.2335 31.7507 36.7775 32.688C36.3469 33.6 36.1189 34.7273 36.0935 36.07C36.0935 37.438 36.3089 38.6033 36.7395 39.566C37.1702 40.5287 37.8035 41.2633 38.6395 41.77C39.4755 42.2767 40.4889 42.53 41.6795 42.53C42.8702 42.53 43.9215 42.2767 44.8335 41.77C45.7455 41.238 46.5182 40.44 47.1515 39.376L49.6215 40.934C48.7095 42.4033 47.5569 43.518 46.1635 44.278C44.7955 45.0127 43.1742 45.38 41.2995 45.38ZM54.2822 18.4H57.5122V41.96H67.9622V45H54.2822V18.4ZM77.9636 45.38C76.3423 45.38 74.8983 45 73.6316 44.24C72.3903 43.4547 71.4149 42.378 70.7056 41.01C70.0216 39.642 69.6796 38.0587 69.6796 36.26C69.6796 34.436 70.0343 32.84 70.7436 31.472C71.4783 30.104 72.4916 29.04 73.7836 28.28C75.1009 27.52 76.6209 27.14 78.3436 27.14C80.0663 27.14 81.5356 27.5073 82.7516 28.242C83.9929 28.9513 84.9429 29.9773 85.6016 31.32C86.2603 32.6627 86.5896 34.2587 86.5896 36.108C86.5896 36.2853 86.5769 36.4753 86.5516 36.678C86.5516 36.8553 86.5516 36.9693 86.5516 37.02H71.6176V34.436H84.1576L82.9416 36.184C83.0176 36.0573 83.0936 35.8673 83.1696 35.614C83.2456 35.3353 83.2836 35.1073 83.2836 34.93C83.2836 33.8913 83.0683 32.992 82.6376 32.232C82.2323 31.472 81.6623 30.8767 80.9276 30.446C80.1929 30.0153 79.3316 29.8 78.3436 29.8C77.1783 29.8 76.1776 30.0533 75.3416 30.56C74.5309 31.0413 73.8976 31.7507 73.4416 32.688C73.0109 33.6 72.7829 34.7273 72.7576 36.07C72.7576 37.438 72.9729 38.6033 73.4036 39.566C73.8343 40.5287 74.4676 41.2633 75.3036 41.77C76.1396 42.2767 77.1529 42.53 78.3436 42.53C79.5343 42.53 80.5856 42.2767 81.4976 41.77C82.4096 41.238 83.1823 40.44 83.8156 39.376L86.2856 40.934C85.3736 42.4033 84.2209 43.518 82.8276 44.278C81.4596 45.0127 79.8383 45.38 77.9636 45.38ZM101.966 34.36C101.966 32.916 101.65 31.8267 101.016 31.092C100.383 30.3573 99.4583 29.99 98.2423 29.99C97.3556 29.99 96.5703 30.18 95.8863 30.56C95.2276 30.9147 94.7083 31.4213 94.3283 32.08C93.9736 32.7387 93.7963 33.4987 93.7963 34.36V45H90.7563V27.52H93.7963V30.256C94.3789 29.192 95.1009 28.4067 95.9623 27.9C96.8489 27.3933 97.8623 27.14 99.0023 27.14C100.852 27.14 102.308 27.7607 103.372 29.002C104.462 30.218 105.006 31.8773 105.006 33.98V45H101.966V34.36ZM124.204 31.7C124.204 33.752 124.66 35.5633 125.572 37.134C126.509 38.7047 127.725 39.9333 129.22 40.82C130.714 41.7067 132.336 42.15 134.084 42.15C135.35 42.15 136.503 41.9853 137.542 41.656C138.606 41.3267 139.568 40.8707 140.43 40.288C141.291 39.68 142.026 38.9833 142.634 38.198V42.454C141.519 43.442 140.303 44.1767 138.986 44.658C137.668 45.1393 136.034 45.38 134.084 45.38C132.234 45.38 130.499 45.0507 128.878 44.392C127.282 43.708 125.876 42.758 124.66 41.542C123.444 40.3007 122.494 38.844 121.81 37.172C121.126 35.5 120.784 33.676 120.784 31.7C120.784 29.724 121.126 27.9 121.81 26.228C122.494 24.556 123.444 23.112 124.66 21.896C125.876 20.6547 127.282 19.7047 128.878 19.046C130.499 18.362 132.234 18.02 134.084 18.02C136.034 18.02 137.668 18.2607 138.986 18.742C140.303 19.2233 141.519 19.958 142.634 20.946V25.202C142.026 24.4167 141.291 23.7327 140.43 23.15C139.568 22.542 138.606 22.0733 137.542 21.744C136.503 21.4147 135.35 21.25 134.084 21.25C132.336 21.25 130.714 21.6933 129.22 22.58C127.725 23.4667 126.509 24.6953 125.572 26.266C124.66 27.8113 124.204 29.6227 124.204 31.7ZM154.891 31.89V29.8C155.753 29.8 156.513 29.686 157.171 29.458C157.83 29.2047 158.387 28.8753 158.843 28.47C159.299 28.0393 159.641 27.5453 159.869 26.988C160.123 26.4307 160.249 25.8353 160.249 25.202C160.249 24.366 160.097 23.6313 159.793 22.998C159.489 22.3393 159.033 21.8327 158.425 21.478C157.843 21.1233 157.108 20.946 156.221 20.946C154.98 20.946 153.929 21.3387 153.067 22.124C152.206 22.884 151.775 23.8467 151.775 25.012H148.697C148.697 23.6187 149.014 22.4027 149.647 21.364C150.306 20.3253 151.193 19.5147 152.307 18.932C153.447 18.324 154.739 18.02 156.183 18.02C157.703 18.02 159.008 18.3493 160.097 19.008C161.212 19.6667 162.061 20.528 162.643 21.592C163.251 22.656 163.555 23.8213 163.555 25.088C163.555 26.3293 163.188 27.4693 162.453 28.508C161.719 29.5467 160.705 30.37 159.413 30.978C158.121 31.586 156.614 31.89 154.891 31.89ZM156.031 45.38C154.739 45.38 153.574 45.19 152.535 44.81C151.497 44.43 150.61 43.9107 149.875 43.252C149.141 42.568 148.571 41.7827 148.165 40.896C147.76 39.984 147.557 39.0087 147.557 37.97H150.825C150.825 38.806 151.041 39.5533 151.471 40.212C151.927 40.8707 152.548 41.39 153.333 41.77C154.119 42.15 155.018 42.34 156.031 42.34C157.045 42.34 157.919 42.15 158.653 41.77C159.413 41.3647 159.996 40.8073 160.401 40.098C160.807 39.3887 161.009 38.5527 161.009 37.59C161.009 36.7793 160.845 36.07 160.515 35.462C160.211 34.8287 159.781 34.3093 159.223 33.904C158.666 33.4733 158.02 33.1567 157.285 32.954C156.551 32.7513 155.753 32.65 154.891 32.65V30.56C156.183 30.56 157.387 30.6993 158.501 30.978C159.641 31.2567 160.642 31.7 161.503 32.308C162.39 32.8907 163.074 33.6507 163.555 34.588C164.062 35.5253 164.315 36.6527 164.315 37.97C164.315 39.4647 163.948 40.7693 163.213 41.884C162.504 42.9987 161.529 43.86 160.287 44.468C159.046 45.076 157.627 45.38 156.031 45.38ZM169.061 23.644V20.3L178.181 18.02V45H174.951V21.896L169.061 23.644ZM187.879 31.7C187.879 33.2453 188.031 34.6767 188.335 35.994C188.639 37.286 189.082 38.4133 189.665 39.376C190.248 40.3133 190.944 41.048 191.755 41.58C192.591 42.0867 193.516 42.34 194.529 42.34C195.568 42.34 196.492 42.0867 197.303 41.58C198.114 41.048 198.81 40.3133 199.393 39.376C199.976 38.4133 200.419 37.286 200.723 35.994C201.027 34.6767 201.179 33.2453 201.179 31.7C201.179 30.1547 201.027 28.736 200.723 27.444C200.419 26.1267 199.976 24.9993 199.393 24.062C198.81 23.0993 198.114 22.3647 197.303 21.858C196.492 21.326 195.568 21.06 194.529 21.06C193.516 21.06 192.591 21.326 191.755 21.858C190.944 22.3647 190.248 23.0993 189.665 24.062C189.082 24.9993 188.639 26.1267 188.335 27.444C188.031 28.736 187.879 30.1547 187.879 31.7ZM184.649 31.7C184.649 29.04 185.067 26.684 185.903 24.632C186.739 22.58 187.892 20.9713 189.361 19.806C190.856 18.6153 192.578 18.02 194.529 18.02C196.48 18.02 198.19 18.6153 199.659 19.806C201.154 20.9713 202.319 22.58 203.155 24.632C203.991 26.684 204.409 29.04 204.409 31.7C204.409 34.36 203.991 36.716 203.155 38.768C202.319 40.82 201.154 42.4413 199.659 43.632C198.19 44.7973 196.48 45.38 194.529 45.38C192.578 45.38 190.856 44.7973 189.361 43.632C187.892 42.4413 186.739 40.82 185.903 38.768C185.067 36.716 184.649 34.36 184.649 31.7Z" fill="white"/>
</g>
<defs>
<clipPath id="clip0_1004_9">
<rect width="210" height="64" fill="white"/>
</clipPath>
</defs>
</svg>
